<svg xmlns="http://www.w3.org/2000/svg" xmlns:xlink="http://www.w3.org/1999/xlink" viewBox="0 0 849.6 256.67"><defs><style>.cls-1{fill:none;}.cls-2{clip-path:url(#clip-path);}.cls-3{fill:#f3e03a;}.cls-4{fill:#f3df37;}.cls-5{fill:#f3de35;}.cls-6{fill:#f2dc33;}.cls-7{fill:#f2db31;}.cls-8{fill:#f2da2f;}.cls-9{fill:#f1d92d;}.cls-10{fill:#f1d82b;}.cls-11{fill:#f1d72b;}.cls-12{fill:#efd62e;}.cls-13{fill:#efd42d;}.cls-14{fill:#efd32c;}.cls-15{fill:#efd22c;}.cls-16{fill:#eed12b;}.cls-17{fill:#eed02a;}.cls-18{fill:#eece2a;}.cls-19{fill:#eecd2a;}.cls-20{fill:#eccc2b;}.cls-21{fill:#eccb2a;}.cls-22{fill:#eaca2d;}.cls-23{fill:#e9c82d;}.cls-24{fill:#e9c72d;}.cls-25{fill:#e9c62d;}.cls-26{fill:#e8c42d;}</style><clipPath id="clip-path"><rect class="cls-1" width="849.6" height="256.67"/></clipPath></defs><title>Ресурс 29</title><g id="Слой_2" data-name="Слой 2"><g id="_1" data-name="1"><g class="cls-2"><rect class="cls-3" width="4.98" height="256.67"/><rect class="cls-3" x="3.32" width="4.98" height="256.67"/><rect class="cls-3" x="6.64" width="4.98" height="256.67"/><rect class="cls-3" x="9.96" width="4.98" height="256.67"/><rect class="cls-3" x="13.27" width="4.98" height="256.67"/><rect class="cls-3" x="16.59" width="4.98" height="256.67"/><rect class="cls-3" x="19.91" width="4.98" height="256.67"/><rect class="cls-3" x="23.23" width="4.98" height="256.67"/><rect class="cls-3" x="26.55" width="4.98" height="256.67"/><rect class="cls-3" x="29.87" width="4.98" height="256.67"/><rect class="cls-3" x="33.19" width="4.98" height="256.67"/><rect class="cls-3" x="36.51" width="4.98" height="256.67"/><rect class="cls-3" x="39.82" width="4.98" height="256.67"/><rect class="cls-3" x="43.14" width="4.98" height="256.67"/><rect class="cls-3" x="46.46" width="4.98" height="256.67"/><rect class="cls-3" x="49.78" width="4.98" height="256.67"/><rect class="cls-3" x="53.1" width="4.98" height="256.67"/><rect class="cls-3" x="56.42" width="4.98" height="256.67"/><rect class="cls-3" x="59.74" width="4.98" height="256.67"/><rect class="cls-3" x="63.06" width="4.98" height="256.67"/><rect class="cls-3" x="66.37" width="4.98" height="256.67"/><rect class="cls-3" x="69.69" width="4.98" height="256.67"/><rect class="cls-3" x="73.01" width="4.98" height="256.67"/><rect class="cls-3" x="76.33" width="4.98" height="256.67"/><rect class="cls-3" x="79.65" width="4.98" height="256.67"/><rect class="cls-3" x="82.97" width="4.98" height="256.67"/><rect class="cls-3" x="86.29" width="4.98" height="256.67"/><rect class="cls-3" x="89.61" width="4.98" height="256.67"/><rect class="cls-3" x="92.92" width="4.98" height="256.67"/><rect class="cls-3" x="96.24" width="4.98" height="256.67"/><rect class="cls-3" x="99.56" width="4.98" height="256.67"/><rect class="cls-3" x="102.88" width="4.98" height="256.67"/><rect class="cls-3" x="106.2" width="4.98" height="256.67"/><rect class="cls-3" x="109.52" width="4.98" height="256.67"/><rect class="cls-3" x="112.84" width="4.98" height="256.67"/><rect class="cls-3" x="116.16" width="4.98" height="256.67"/><rect class="cls-3" x="119.47" width="4.98" height="256.67"/><rect class="cls-3" x="122.79" width="4.98" height="256.67"/><rect class="cls-3" x="126.11" width="4.98" height="256.67"/><rect class="cls-3" x="129.43" width="4.98" height="256.67"/><rect class="cls-3" x="132.75" width="4.98" height="256.67"/><rect class="cls-3" x="136.07" width="4.98" height="256.67"/><rect class="cls-3" x="139.39" width="4.98" height="256.67"/><rect class="cls-3" x="142.71" width="4.98" height="256.67"/><rect class="cls-3" x="146.02" width="4.98" height="256.67"/><rect class="cls-3" x="149.34" width="4.98" height="256.67"/><rect class="cls-3" x="152.66" width="4.98" height="256.67"/><rect class="cls-3" x="155.98" width="4.98" height="256.67"/><rect class="cls-3" x="159.3" width="4.98" height="256.67"/><rect class="cls-3" x="162.62" width="4.98" height="256.67"/><rect class="cls-4" x="165.94" width="4.98" height="256.67"/><rect class="cls-4" x="169.26" width="4.98" height="256.67"/><rect class="cls-4" x="172.57" width="4.98" height="256.67"/><rect class="cls-4" x="175.89" width="4.98" height="256.67"/><rect class="cls-4" x="179.21" width="4.98" height="256.67"/><rect class="cls-4" x="182.53" width="4.98" height="256.67"/><rect class="cls-4" x="185.85" width="4.98" height="256.67"/><rect class="cls-4" x="189.17" width="4.98" height="256.67"/><rect class="cls-4" x="192.49" width="4.98" height="256.67"/><rect class="cls-4" x="195.81" width="4.98" height="256.67"/><rect class="cls-4" x="199.13" width="4.98" height="256.67"/><rect class="cls-4" x="202.44" width="4.98" height="256.67"/><rect class="cls-4" x="205.76" width="4.98" height="256.67"/><rect class="cls-4" x="209.08" width="4.98" height="256.67"/><rect class="cls-4" x="212.4" width="4.98" height="256.67"/><rect class="cls-4" x="215.72" width="4.98" height="256.67"/><rect class="cls-4" x="219.04" width="4.98" height="256.67"/><rect class="cls-4" x="222.36" width="4.98" height="256.67"/><rect class="cls-4" x="225.68" width="4.98" height="256.67"/><rect class="cls-4" x="228.99" width="4.98" height="256.67"/><rect class="cls-4" x="232.31" width="4.98" height="256.67"/><rect class="cls-4" x="235.63" width="4.98" height="256.67"/><rect class="cls-4" x="238.95" width="4.98" height="256.67"/><rect class="cls-4" x="242.27" width="4.98" height="256.67"/><rect class="cls-4" x="245.59" width="4.98" height="256.67"/><rect class="cls-4" x="248.91" width="4.98" height="256.67"/><rect class="cls-4" x="252.23" width="4.98" height="256.67"/><rect class="cls-4" x="255.54" width="4.98" height="256.67"/><rect class="cls-4" x="258.86" width="4.98" height="256.67"/><rect class="cls-4" x="262.18" width="4.98" height="256.67"/><rect class="cls-4" x="265.5" width="4.98" height="256.67"/><rect class="cls-4" x="268.82" width="4.98" height="256.67"/><rect class="cls-4" x="272.14" width="4.98" height="256.67"/><rect class="cls-4" x="275.46" width="4.98" height="256.67"/><rect class="cls-4" x="278.78" width="4.98" height="256.67"/><rect class="cls-4" x="282.09" width="4.98" height="256.67"/><rect class="cls-4" x="285.41" width="4.98" height="256.67"/><rect class="cls-4" x="288.73" width="4.98" height="256.67"/><rect class="cls-4" x="292.05" width="4.98" height="256.67"/><rect class="cls-4" x="295.37" width="4.98" height="256.67"/><rect class="cls-4" x="298.69" width="4.98" height="256.67"/><rect class="cls-4" x="302.01" width="4.98" height="256.67"/><rect class="cls-4" x="305.32" width="4.98" height="256.67"/><rect class="cls-4" x="308.64" width="4.98" height="256.67"/><rect class="cls-4" x="311.96" width="4.98" height="256.67"/><rect class="cls-4" x="315.28" width="4.98" height="256.67"/><rect class="cls-4" x="318.6" width="4.98" height="256.67"/><rect class="cls-4" x="321.92" width="4.98" height="256.67"/><rect class="cls-4" x="325.24" width="4.98" height="256.67"/><rect class="cls-4" x="328.56" width="4.98" height="256.67"/><rect class="cls-4" x="331.88" width="4.98" height="256.67"/><rect class="cls-4" x="335.19" width="4.98" height="256.67"/><rect class="cls-5" x="338.51" width="4.98" height="256.67"/><rect class="cls-5" x="341.83" width="4.98" height="256.67"/><rect class="cls-5" x="345.15" width="4.98" height="256.67"/><rect class="cls-5" x="348.47" width="4.98" height="256.67"/><rect class="cls-5" x="351.79" width="4.98" height="256.67"/><rect class="cls-5" x="355.11" width="4.98" height="256.67"/><rect class="cls-5" x="358.42" width="4.98" height="256.67"/><rect class="cls-5" x="361.74" width="4.98" height="256.67"/><rect class="cls-5" x="365.06" width="4.98" height="256.67"/><rect class="cls-6" x="368.38" width="4.98" height="256.67"/><rect class="cls-6" x="371.7" width="4.98" height="256.67"/><rect class="cls-6" x="375.02" width="4.98" height="256.67"/><rect class="cls-6" x="378.34" width="4.98" height="256.67"/><rect class="cls-6" x="381.66" width="4.98" height="256.67"/><rect class="cls-6" x="384.98" width="4.98" height="256.67"/><rect class="cls-6" x="388.29" width="4.98" height="256.67"/><rect class="cls-7" x="391.61" width="4.98" height="256.67"/><rect class="cls-7" x="394.93" width="4.98" height="256.67"/><rect class="cls-7" x="398.25" width="4.98" height="256.67"/><rect class="cls-7" x="401.57" width="4.98" height="256.67"/><rect class="cls-7" x="404.89" width="4.98" height="256.67"/><rect class="cls-7" x="408.21" width="4.98" height="256.67"/><rect class="cls-7" x="411.52" width="4.98" height="256.67"/><rect class="cls-7" x="414.84" width="4.98" height="256.67"/><rect class="cls-7" x="418.16" width="4.98" height="256.67"/><rect class="cls-8" x="421.48" width="4.98" height="256.67"/><rect class="cls-8" x="424.8" width="4.98" height="256.67"/><rect class="cls-8" x="428.12" width="4.98" height="256.67"/><rect class="cls-8" x="431.44" width="4.98" height="256.67"/><rect class="cls-8" x="434.76" width="4.98" height="256.67"/><rect class="cls-8" x="438.08" width="4.98" height="256.67"/><rect class="cls-8" x="441.39" width="4.98" height="256.67"/><rect class="cls-8" x="444.71" width="4.98" height="256.67"/><rect class="cls-8" x="448.03" width="4.98" height="256.67"/><rect class="cls-8" x="451.35" width="4.98" height="256.67"/><rect class="cls-9" x="454.67" width="4.98" height="256.67"/><rect class="cls-9" x="457.99" width="4.98" height="256.67"/><rect class="cls-9" x="461.31" width="4.98" height="256.67"/><rect class="cls-9" x="464.63" width="4.98" height="256.67"/><rect class="cls-9" x="467.94" width="4.98" height="256.67"/><rect class="cls-9" x="471.26" width="4.98" height="256.67"/><rect class="cls-9" x="474.58" width="4.98" height="256.67"/><rect class="cls-10" x="477.9" width="4.98" height="256.67"/><rect class="cls-10" x="481.22" width="4.98" height="256.67"/><rect class="cls-10" x="484.54" width="4.98" height="256.67"/><rect class="cls-10" x="487.86" width="4.98" height="256.67"/><rect class="cls-10" x="491.18" width="4.98" height="256.67"/><rect class="cls-10" x="494.49" width="4.98" height="256.67"/><rect class="cls-10" x="497.81" width="4.98" height="256.67"/><rect class="cls-10" x="501.13" width="4.98" height="256.67"/><rect class="cls-10" x="504.45" width="4.98" height="256.67"/><rect class="cls-11" x="507.77" width="4.98" height="256.67"/><rect class="cls-11" x="511.09" width="4.98" height="256.67"/><rect class="cls-11" x="514.41" width="4.98" height="256.67"/><rect class="cls-12" x="517.73" width="4.98" height="256.67"/><rect class="cls-12" x="521.04" width="4.98" height="256.67"/><rect class="cls-12" x="524.36" width="4.98" height="256.67"/><rect class="cls-12" x="527.68" width="4.98" height="256.67"/><rect class="cls-13" x="531" width="4.98" height="256.67"/><rect class="cls-13" x="534.32" width="4.98" height="256.67"/><rect class="cls-13" x="537.64" width="4.98" height="256.67"/><rect class="cls-13" x="540.96" width="4.98" height="256.67"/><rect class="cls-13" x="544.28" width="4.98" height="256.67"/><rect class="cls-13" x="547.59" width="4.98" height="256.67"/><rect class="cls-13" x="550.91" width="4.98" height="256.67"/><rect class="cls-13" x="554.23" width="4.98" height="256.67"/><rect class="cls-13" x="557.55" width="4.98" height="256.67"/><rect class="cls-13" x="560.87" width="4.98" height="256.67"/><rect class="cls-14" x="564.19" width="4.98" height="256.67"/><rect class="cls-14" x="567.51" width="4.98" height="256.67"/><rect class="cls-14" x="570.82" width="4.98" height="256.67"/><rect class="cls-14" x="574.14" width="4.98" height="256.67"/><rect class="cls-14" x="577.46" width="4.98" height="256.67"/><rect class="cls-14" x="580.78" width="4.98" height="256.67"/><rect class="cls-15" x="584.1" width="4.98" height="256.67"/><rect class="cls-15" x="587.42" width="4.98" height="256.67"/><rect class="cls-15" x="590.74" width="4.98" height="256.67"/><rect class="cls-15" x="594.06" width="4.98" height="256.67"/><rect class="cls-15" x="597.38" width="4.98" height="256.67"/><rect class="cls-15" x="600.69" width="4.98" height="256.67"/><rect class="cls-15" x="604.01" width="4.98" height="256.67"/><rect class="cls-15" x="607.33" width="4.98" height="256.67"/><rect class="cls-15" x="610.65" width="4.98" height="256.67"/><rect class="cls-15" x="613.97" width="4.98" height="256.67"/><rect class="cls-16" x="617.29" width="4.98" height="256.67"/><rect class="cls-16" x="620.61" width="4.98" height="256.67"/><rect class="cls-16" x="623.92" width="4.98" height="256.67"/><rect class="cls-16" x="627.24" width="4.98" height="256.67"/><rect class="cls-16" x="630.56" width="4.98" height="256.67"/><rect class="cls-16" x="633.88" width="4.98" height="256.67"/><rect class="cls-17" x="637.2" width="4.98" height="256.67"/><rect class="cls-17" x="640.52" width="4.98" height="256.67"/><rect class="cls-17" x="643.84" width="4.98" height="256.67"/><rect class="cls-17" x="647.16" width="4.98" height="256.67"/><rect class="cls-17" x="650.48" width="4.98" height="256.67"/><rect class="cls-17" x="653.79" width="4.98" height="256.67"/><rect class="cls-17" x="657.11" width="4.98" height="256.67"/><rect class="cls-17" x="660.43" width="4.98" height="256.67"/><rect class="cls-17" x="663.75" width="4.98" height="256.67"/><rect class="cls-17" x="667.07" width="4.98" height="256.67"/><rect class="cls-18" x="670.39" width="4.98" height="256.67"/><rect class="cls-18" x="673.71" width="4.98" height="256.67"/><rect class="cls-18" x="677.03" width="4.98" height="256.67"/><rect class="cls-18" x="680.34" width="4.98" height="256.67"/><rect class="cls-18" x="683.66" width="4.98" height="256.67"/><rect class="cls-18" x="686.98" width="4.98" height="256.67"/><rect class="cls-18" x="690.3" width="4.98" height="256.67"/><rect class="cls-19" x="693.62" width="4.98" height="256.67"/><rect class="cls-19" x="696.94" width="4.98" height="256.67"/><rect class="cls-19" x="700.26" width="4.98" height="256.67"/><rect class="cls-19" x="703.58" width="4.98" height="256.67"/><rect class="cls-19" x="706.89" width="4.98" height="256.67"/><rect class="cls-19" x="710.21" width="4.98" height="256.67"/><rect class="cls-19" x="713.53" width="4.98" height="256.67"/><rect class="cls-19" x="716.85" width="4.98" height="256.67"/><rect class="cls-20" x="720.17" width="4.98" height="256.67"/><rect class="cls-21" x="723.49" width="4.98" height="256.67"/><rect class="cls-21" x="726.81" width="4.98" height="256.67"/><rect class="cls-21" x="730.13" width="4.98" height="256.67"/><rect class="cls-21" x="733.44" width="4.98" height="256.67"/><rect class="cls-22" x="736.76" width="4.98" height="256.67"/><rect class="cls-22" x="740.08" width="4.98" height="256.67"/><rect class="cls-22" x="743.4" width="4.98" height="256.67"/><rect class="cls-22" x="746.72" width="4.98" height="256.67"/><rect class="cls-22" x="750.04" width="4.98" height="256.67"/><rect class="cls-22" x="753.36" width="4.98" height="256.67"/><rect class="cls-23" x="756.68" width="4.98" height="256.67"/><rect class="cls-23" x="759.99" width="4.98" height="256.67"/><rect class="cls-23" x="763.31" width="4.98" height="256.67"/><rect class="cls-23" x="766.63" width="4.98" height="256.67"/><rect class="cls-23" x="769.95" width="4.98" height="256.67"/><rect class="cls-23" x="773.27" width="4.98" height="256.67"/><rect class="cls-24" x="776.59" width="4.98" height="256.67"/><rect class="cls-24" x="779.91" width="4.98" height="256.67"/><rect class="cls-24" x="783.23" width="4.98" height="256.67"/><rect class="cls-24" x="786.54" width="4.98" height="256.67"/><rect class="cls-24" x="789.86" width="4.98" height="256.67"/><rect class="cls-24" x="793.18" width="4.98" height="256.67"/><rect class="cls-24" x="796.5" width="4.98" height="256.67"/><rect class="cls-24" x="799.82" width="4.98" height="256.67"/><rect class="cls-24" x="803.14" width="4.98" height="256.67"/><rect class="cls-24" x="806.46" width="4.98" height="256.67"/><rect class="cls-25" x="809.78" width="4.98" height="256.67"/><rect class="cls-25" x="813.09" width="4.98" height="256.67"/><rect class="cls-25" x="816.41" width="4.98" height="256.67"/><rect class="cls-25" x="819.73" width="4.98" height="256.67"/><rect class="cls-25" x="823.05" width="4.98" height="256.67"/><rect class="cls-25" x="826.37" width="4.98" height="256.67"/><rect class="cls-25" x="829.69" width="4.98" height="256.67"/><rect class="cls-26" x="833.01" width="4.98" height="256.67"/><rect class="cls-26" x="836.33" width="4.98" height="256.67"/><rect class="cls-26" x="839.64" width="4.98" height="256.67"/><rect class="cls-26" x="842.96" width="4.98" height="256.67"/><rect class="cls-26" x="846.28" width="3.32" height="256.67"/></g></g></g></svg>